<mxfile host="app.diagrams.net" agent="Mozilla/5.0 (Windows NT 10.0; Win64; x64) AppleWebKit/537.36 (KHTML, like Gecko) Chrome/130.0.0.0 Safari/537.36 Edg/130.0.0.0" version="24.8.2">
  <diagram name="Page-1" id="RQ9wja_OxxIFF9JOZhzB">
    <mxGraphModel grid="1" page="1" gridSize="10" guides="1" tooltips="1" connect="1" arrows="1" fold="1" pageScale="1" pageWidth="3300" pageHeight="4681" math="0" shadow="0">
      <root>
        <mxCell id="0" />
        <mxCell id="1" parent="0" />
        <mxCell id="ZVQHAaGxuzvZ9deuEwwE-2" style="edgeStyle=orthogonalEdgeStyle;rounded=0;orthogonalLoop=1;jettySize=auto;html=1;" edge="1" parent="1" source="ZVQHAaGxuzvZ9deuEwwE-1">
          <mxGeometry relative="1" as="geometry">
            <mxPoint x="435" y="150" as="targetPoint" />
          </mxGeometry>
        </mxCell>
        <mxCell id="ZVQHAaGxuzvZ9deuEwwE-1" value="&lt;font size=&quot;3&quot;&gt;START&lt;/font&gt;" style="ellipse;whiteSpace=wrap;html=1;" vertex="1" parent="1">
          <mxGeometry x="380" y="10" width="110" height="70" as="geometry" />
        </mxCell>
        <mxCell id="ZVQHAaGxuzvZ9deuEwwE-6" style="edgeStyle=orthogonalEdgeStyle;rounded=0;orthogonalLoop=1;jettySize=auto;html=1;entryX=0.5;entryY=0;entryDx=0;entryDy=0;" edge="1" parent="1" source="ZVQHAaGxuzvZ9deuEwwE-3" target="ZVQHAaGxuzvZ9deuEwwE-5">
          <mxGeometry relative="1" as="geometry" />
        </mxCell>
        <mxCell id="ZVQHAaGxuzvZ9deuEwwE-3" value="enter month number" style="shape=parallelogram;perimeter=parallelogramPerimeter;whiteSpace=wrap;html=1;fixedSize=1;" vertex="1" parent="1">
          <mxGeometry x="345" y="150" width="180" height="60" as="geometry" />
        </mxCell>
        <mxCell id="ZVQHAaGxuzvZ9deuEwwE-7" style="edgeStyle=orthogonalEdgeStyle;rounded=0;orthogonalLoop=1;jettySize=auto;html=1;" edge="1" parent="1" source="ZVQHAaGxuzvZ9deuEwwE-5">
          <mxGeometry relative="1" as="geometry">
            <mxPoint x="250" y="420" as="targetPoint" />
            <Array as="points">
              <mxPoint x="303" y="320" />
              <mxPoint x="303" y="321" />
            </Array>
          </mxGeometry>
        </mxCell>
        <mxCell id="ZVQHAaGxuzvZ9deuEwwE-59" value="Y" style="edgeLabel;html=1;align=center;verticalAlign=middle;resizable=0;points=[];" connectable="0" vertex="1" parent="ZVQHAaGxuzvZ9deuEwwE-7">
          <mxGeometry x="-0.4479" y="-1" relative="1" as="geometry">
            <mxPoint as="offset" />
          </mxGeometry>
        </mxCell>
        <mxCell id="ZVQHAaGxuzvZ9deuEwwE-9" style="edgeStyle=orthogonalEdgeStyle;rounded=0;orthogonalLoop=1;jettySize=auto;html=1;" edge="1" parent="1" source="ZVQHAaGxuzvZ9deuEwwE-5">
          <mxGeometry relative="1" as="geometry">
            <mxPoint x="640" y="420" as="targetPoint" />
            <Array as="points">
              <mxPoint x="640" y="320" />
              <mxPoint x="640" y="320" />
            </Array>
          </mxGeometry>
        </mxCell>
        <mxCell id="ZVQHAaGxuzvZ9deuEwwE-60" value="N" style="edgeLabel;html=1;align=center;verticalAlign=middle;resizable=0;points=[];" connectable="0" vertex="1" parent="ZVQHAaGxuzvZ9deuEwwE-9">
          <mxGeometry x="-0.4143" y="2" relative="1" as="geometry">
            <mxPoint as="offset" />
          </mxGeometry>
        </mxCell>
        <mxCell id="ZVQHAaGxuzvZ9deuEwwE-5" value="if month number==1" style="rhombus;whiteSpace=wrap;html=1;" vertex="1" parent="1">
          <mxGeometry x="355" y="270" width="160" height="100" as="geometry" />
        </mxCell>
        <mxCell id="ZVQHAaGxuzvZ9deuEwwE-95" style="edgeStyle=orthogonalEdgeStyle;rounded=0;orthogonalLoop=1;jettySize=auto;html=1;entryX=0;entryY=1;entryDx=0;entryDy=0;" edge="1" parent="1" source="ZVQHAaGxuzvZ9deuEwwE-8" target="ZVQHAaGxuzvZ9deuEwwE-82">
          <mxGeometry relative="1" as="geometry">
            <mxPoint x="830" y="1996" as="targetPoint" />
            <Array as="points">
              <mxPoint x="245" y="1280" />
              <mxPoint x="246" y="1996" />
            </Array>
          </mxGeometry>
        </mxCell>
        <mxCell id="ZVQHAaGxuzvZ9deuEwwE-8" value="print(january)&lt;div&gt;print(january has 31 days)&lt;/div&gt;" style="shape=parallelogram;perimeter=parallelogramPerimeter;whiteSpace=wrap;html=1;fixedSize=1;" vertex="1" parent="1">
          <mxGeometry x="130" y="420" width="230" height="60" as="geometry" />
        </mxCell>
        <mxCell id="ZVQHAaGxuzvZ9deuEwwE-11" style="edgeStyle=orthogonalEdgeStyle;rounded=0;orthogonalLoop=1;jettySize=auto;html=1;" edge="1" parent="1" source="ZVQHAaGxuzvZ9deuEwwE-10">
          <mxGeometry relative="1" as="geometry">
            <mxPoint x="450" y="580" as="targetPoint" />
            <Array as="points">
              <mxPoint x="450" y="470" />
            </Array>
          </mxGeometry>
        </mxCell>
        <mxCell id="ZVQHAaGxuzvZ9deuEwwE-61" value="Y" style="edgeLabel;html=1;align=center;verticalAlign=middle;resizable=0;points=[];" connectable="0" vertex="1" parent="ZVQHAaGxuzvZ9deuEwwE-11">
          <mxGeometry x="-0.564" y="-1" relative="1" as="geometry">
            <mxPoint as="offset" />
          </mxGeometry>
        </mxCell>
        <mxCell id="ZVQHAaGxuzvZ9deuEwwE-13" style="edgeStyle=orthogonalEdgeStyle;rounded=0;orthogonalLoop=1;jettySize=auto;html=1;" edge="1" parent="1" source="ZVQHAaGxuzvZ9deuEwwE-10">
          <mxGeometry relative="1" as="geometry">
            <mxPoint x="860" y="580" as="targetPoint" />
            <Array as="points">
              <mxPoint x="860" y="470" />
            </Array>
          </mxGeometry>
        </mxCell>
        <mxCell id="ZVQHAaGxuzvZ9deuEwwE-63" value="N" style="edgeLabel;html=1;align=center;verticalAlign=middle;resizable=0;points=[];" connectable="0" vertex="1" parent="ZVQHAaGxuzvZ9deuEwwE-13">
          <mxGeometry x="-0.4926" y="3" relative="1" as="geometry">
            <mxPoint as="offset" />
          </mxGeometry>
        </mxCell>
        <mxCell id="ZVQHAaGxuzvZ9deuEwwE-10" value="month number==2" style="rhombus;whiteSpace=wrap;html=1;" vertex="1" parent="1">
          <mxGeometry x="550" y="420" width="180" height="100" as="geometry" />
        </mxCell>
        <mxCell id="ZVQHAaGxuzvZ9deuEwwE-94" style="edgeStyle=orthogonalEdgeStyle;rounded=0;orthogonalLoop=1;jettySize=auto;html=1;" edge="1" parent="1">
          <mxGeometry relative="1" as="geometry">
            <mxPoint x="830" y="1950" as="targetPoint" />
            <mxPoint x="494.00333333333356" y="640" as="sourcePoint" />
            <Array as="points">
              <mxPoint x="456" y="640" />
              <mxPoint x="456" y="1950" />
              <mxPoint x="730" y="1950" />
            </Array>
          </mxGeometry>
        </mxCell>
        <mxCell id="ZVQHAaGxuzvZ9deuEwwE-12" value="print(feberuary)&lt;div&gt;print(28 and 29 days based on&lt;/div&gt;&lt;div&gt;leap year)&lt;/div&gt;" style="shape=parallelogram;perimeter=parallelogramPerimeter;whiteSpace=wrap;html=1;fixedSize=1;" vertex="1" parent="1">
          <mxGeometry x="345" y="580" width="205" height="60" as="geometry" />
        </mxCell>
        <mxCell id="ZVQHAaGxuzvZ9deuEwwE-15" style="edgeStyle=orthogonalEdgeStyle;rounded=0;orthogonalLoop=1;jettySize=auto;html=1;" edge="1" parent="1">
          <mxGeometry relative="1" as="geometry">
            <mxPoint x="641.82" y="740" as="targetPoint" />
            <mxPoint x="770.0018181818183" y="630" as="sourcePoint" />
            <Array as="points">
              <mxPoint x="641.82" y="630" />
              <mxPoint x="641.82" y="630" />
            </Array>
          </mxGeometry>
        </mxCell>
        <mxCell id="ZVQHAaGxuzvZ9deuEwwE-64" value="Y" style="edgeLabel;html=1;align=center;verticalAlign=middle;resizable=0;points=[];" connectable="0" vertex="1" parent="ZVQHAaGxuzvZ9deuEwwE-15">
          <mxGeometry x="-0.4851" y="-1" relative="1" as="geometry">
            <mxPoint as="offset" />
          </mxGeometry>
        </mxCell>
        <mxCell id="ZVQHAaGxuzvZ9deuEwwE-17" style="edgeStyle=orthogonalEdgeStyle;rounded=0;orthogonalLoop=1;jettySize=auto;html=1;" edge="1" parent="1" source="ZVQHAaGxuzvZ9deuEwwE-14">
          <mxGeometry relative="1" as="geometry">
            <mxPoint x="1080" y="740" as="targetPoint" />
            <Array as="points">
              <mxPoint x="1080" y="630" />
              <mxPoint x="1080" y="630" />
            </Array>
          </mxGeometry>
        </mxCell>
        <mxCell id="ZVQHAaGxuzvZ9deuEwwE-65" value="N" style="edgeLabel;html=1;align=center;verticalAlign=middle;resizable=0;points=[];" connectable="0" vertex="1" parent="ZVQHAaGxuzvZ9deuEwwE-17">
          <mxGeometry x="-0.5296" y="1" relative="1" as="geometry">
            <mxPoint as="offset" />
          </mxGeometry>
        </mxCell>
        <mxCell id="ZVQHAaGxuzvZ9deuEwwE-14" value="month number==3" style="rhombus;whiteSpace=wrap;html=1;" vertex="1" parent="1">
          <mxGeometry x="770" y="580" width="180" height="100" as="geometry" />
        </mxCell>
        <mxCell id="ZVQHAaGxuzvZ9deuEwwE-93" style="edgeStyle=orthogonalEdgeStyle;rounded=0;orthogonalLoop=1;jettySize=auto;html=1;entryX=0;entryY=0.5;entryDx=0;entryDy=0;" edge="1" parent="1" source="ZVQHAaGxuzvZ9deuEwwE-16" target="ZVQHAaGxuzvZ9deuEwwE-82">
          <mxGeometry relative="1" as="geometry">
            <mxPoint x="640" y="1922.6666666666667" as="targetPoint" />
            <Array as="points">
              <mxPoint x="640" y="1915" />
            </Array>
          </mxGeometry>
        </mxCell>
        <mxCell id="ZVQHAaGxuzvZ9deuEwwE-16" value="print(march)&lt;div&gt;print(march has 31 days)&lt;/div&gt;" style="shape=parallelogram;perimeter=parallelogramPerimeter;whiteSpace=wrap;html=1;fixedSize=1;" vertex="1" parent="1">
          <mxGeometry x="555" y="740" width="170" height="60" as="geometry" />
        </mxCell>
        <mxCell id="ZVQHAaGxuzvZ9deuEwwE-19" style="edgeStyle=orthogonalEdgeStyle;rounded=0;orthogonalLoop=1;jettySize=auto;html=1;" edge="1" parent="1" source="ZVQHAaGxuzvZ9deuEwwE-18">
          <mxGeometry relative="1" as="geometry">
            <mxPoint x="910" y="880" as="targetPoint" />
            <Array as="points">
              <mxPoint x="910" y="780" />
              <mxPoint x="910" y="780" />
            </Array>
          </mxGeometry>
        </mxCell>
        <mxCell id="ZVQHAaGxuzvZ9deuEwwE-66" value="Y" style="edgeLabel;html=1;align=center;verticalAlign=middle;resizable=0;points=[];" connectable="0" vertex="1" parent="ZVQHAaGxuzvZ9deuEwwE-19">
          <mxGeometry x="-0.6" y="-1" relative="1" as="geometry">
            <mxPoint as="offset" />
          </mxGeometry>
        </mxCell>
        <mxCell id="ZVQHAaGxuzvZ9deuEwwE-20" style="edgeStyle=orthogonalEdgeStyle;rounded=0;orthogonalLoop=1;jettySize=auto;html=1;" edge="1" parent="1" source="ZVQHAaGxuzvZ9deuEwwE-18">
          <mxGeometry relative="1" as="geometry">
            <mxPoint x="1270" y="880" as="targetPoint" />
            <Array as="points">
              <mxPoint x="1270" y="780" />
            </Array>
          </mxGeometry>
        </mxCell>
        <mxCell id="ZVQHAaGxuzvZ9deuEwwE-67" value="N" style="edgeLabel;html=1;align=center;verticalAlign=middle;resizable=0;points=[];" connectable="0" vertex="1" parent="ZVQHAaGxuzvZ9deuEwwE-20">
          <mxGeometry x="-0.5365" y="1" relative="1" as="geometry">
            <mxPoint as="offset" />
          </mxGeometry>
        </mxCell>
        <mxCell id="ZVQHAaGxuzvZ9deuEwwE-18" value="month number==4&amp;nbsp;" style="rhombus;whiteSpace=wrap;html=1;" vertex="1" parent="1">
          <mxGeometry x="1000" y="740" width="160" height="80" as="geometry" />
        </mxCell>
        <mxCell id="ZVQHAaGxuzvZ9deuEwwE-92" style="edgeStyle=orthogonalEdgeStyle;rounded=0;orthogonalLoop=1;jettySize=auto;html=1;" edge="1" parent="1" source="ZVQHAaGxuzvZ9deuEwwE-21">
          <mxGeometry relative="1" as="geometry">
            <mxPoint x="915" y="1780" as="targetPoint" />
            <Array as="points">
              <mxPoint x="915" y="1720" />
              <mxPoint x="916" y="1806" />
            </Array>
          </mxGeometry>
        </mxCell>
        <mxCell id="ZVQHAaGxuzvZ9deuEwwE-21" value="print(april)&lt;div&gt;print(april has 30 days)&lt;/div&gt;" style="shape=parallelogram;perimeter=parallelogramPerimeter;whiteSpace=wrap;html=1;fixedSize=1;" vertex="1" parent="1">
          <mxGeometry x="820" y="880" width="190" height="60" as="geometry" />
        </mxCell>
        <mxCell id="ZVQHAaGxuzvZ9deuEwwE-23" style="edgeStyle=orthogonalEdgeStyle;rounded=0;orthogonalLoop=1;jettySize=auto;html=1;" edge="1" parent="1" source="ZVQHAaGxuzvZ9deuEwwE-22">
          <mxGeometry relative="1" as="geometry">
            <mxPoint x="1100" y="1010" as="targetPoint" />
            <Array as="points">
              <mxPoint x="1100" y="920" />
            </Array>
          </mxGeometry>
        </mxCell>
        <mxCell id="ZVQHAaGxuzvZ9deuEwwE-68" value="Y" style="edgeLabel;html=1;align=center;verticalAlign=middle;resizable=0;points=[];" connectable="0" vertex="1" parent="ZVQHAaGxuzvZ9deuEwwE-23">
          <mxGeometry x="-0.5531" y="4" relative="1" as="geometry">
            <mxPoint y="-4" as="offset" />
          </mxGeometry>
        </mxCell>
        <mxCell id="ZVQHAaGxuzvZ9deuEwwE-25" style="edgeStyle=orthogonalEdgeStyle;rounded=0;orthogonalLoop=1;jettySize=auto;html=1;" edge="1" parent="1" source="ZVQHAaGxuzvZ9deuEwwE-22">
          <mxGeometry relative="1" as="geometry">
            <mxPoint x="1460" y="1010" as="targetPoint" />
            <Array as="points">
              <mxPoint x="1460" y="920" />
              <mxPoint x="1460" y="920" />
            </Array>
          </mxGeometry>
        </mxCell>
        <mxCell id="ZVQHAaGxuzvZ9deuEwwE-69" value="N" style="edgeLabel;html=1;align=center;verticalAlign=middle;resizable=0;points=[];" connectable="0" vertex="1" parent="ZVQHAaGxuzvZ9deuEwwE-25">
          <mxGeometry x="-0.5022" y="1" relative="1" as="geometry">
            <mxPoint as="offset" />
          </mxGeometry>
        </mxCell>
        <mxCell id="ZVQHAaGxuzvZ9deuEwwE-22" value="month number==5" style="rhombus;whiteSpace=wrap;html=1;" vertex="1" parent="1">
          <mxGeometry x="1190" y="880" width="160" height="80" as="geometry" />
        </mxCell>
        <mxCell id="ZVQHAaGxuzvZ9deuEwwE-91" style="edgeStyle=orthogonalEdgeStyle;rounded=0;orthogonalLoop=1;jettySize=auto;html=1;" edge="1" parent="1" source="ZVQHAaGxuzvZ9deuEwwE-24">
          <mxGeometry relative="1" as="geometry">
            <mxPoint x="965" y="1780" as="targetPoint" />
            <Array as="points">
              <mxPoint x="1090" y="1760" />
            </Array>
          </mxGeometry>
        </mxCell>
        <mxCell id="ZVQHAaGxuzvZ9deuEwwE-24" value="print(may)&lt;div&gt;print(may has 31 days)&lt;/div&gt;" style="shape=parallelogram;perimeter=parallelogramPerimeter;whiteSpace=wrap;html=1;fixedSize=1;" vertex="1" parent="1">
          <mxGeometry x="1000" y="1010" width="180" height="60" as="geometry" />
        </mxCell>
        <mxCell id="ZVQHAaGxuzvZ9deuEwwE-28" style="edgeStyle=orthogonalEdgeStyle;rounded=0;orthogonalLoop=1;jettySize=auto;html=1;" edge="1" parent="1" source="ZVQHAaGxuzvZ9deuEwwE-27">
          <mxGeometry relative="1" as="geometry">
            <mxPoint x="1280" y="1150" as="targetPoint" />
            <Array as="points">
              <mxPoint x="1280" y="1050" />
            </Array>
          </mxGeometry>
        </mxCell>
        <mxCell id="ZVQHAaGxuzvZ9deuEwwE-70" value="Y" style="edgeLabel;html=1;align=center;verticalAlign=middle;resizable=0;points=[];" connectable="0" vertex="1" parent="ZVQHAaGxuzvZ9deuEwwE-28">
          <mxGeometry x="-0.5644" relative="1" as="geometry">
            <mxPoint as="offset" />
          </mxGeometry>
        </mxCell>
        <mxCell id="ZVQHAaGxuzvZ9deuEwwE-30" style="edgeStyle=orthogonalEdgeStyle;rounded=0;orthogonalLoop=1;jettySize=auto;html=1;" edge="1" parent="1" source="ZVQHAaGxuzvZ9deuEwwE-27">
          <mxGeometry relative="1" as="geometry">
            <mxPoint x="1650" y="1150" as="targetPoint" />
            <Array as="points">
              <mxPoint x="1650" y="1050" />
              <mxPoint x="1650" y="1050" />
            </Array>
          </mxGeometry>
        </mxCell>
        <mxCell id="ZVQHAaGxuzvZ9deuEwwE-71" value="N" style="edgeLabel;html=1;align=center;verticalAlign=middle;resizable=0;points=[];" connectable="0" vertex="1" parent="ZVQHAaGxuzvZ9deuEwwE-30">
          <mxGeometry x="-0.4624" y="1" relative="1" as="geometry">
            <mxPoint as="offset" />
          </mxGeometry>
        </mxCell>
        <mxCell id="ZVQHAaGxuzvZ9deuEwwE-27" value="month number==6" style="rhombus;whiteSpace=wrap;html=1;" vertex="1" parent="1">
          <mxGeometry x="1380" y="1010" width="160" height="80" as="geometry" />
        </mxCell>
        <mxCell id="ZVQHAaGxuzvZ9deuEwwE-90" style="edgeStyle=orthogonalEdgeStyle;rounded=0;orthogonalLoop=1;jettySize=auto;html=1;" edge="1" parent="1" source="ZVQHAaGxuzvZ9deuEwwE-29">
          <mxGeometry relative="1" as="geometry">
            <mxPoint x="1090" y="1846" as="targetPoint" />
            <Array as="points">
              <mxPoint x="1270" y="1846" />
            </Array>
          </mxGeometry>
        </mxCell>
        <mxCell id="ZVQHAaGxuzvZ9deuEwwE-29" value="print(june)&lt;div&gt;print(june has 30 days)&lt;/div&gt;" style="shape=parallelogram;perimeter=parallelogramPerimeter;whiteSpace=wrap;html=1;fixedSize=1;" vertex="1" parent="1">
          <mxGeometry x="1180" y="1150" width="180" height="60" as="geometry" />
        </mxCell>
        <mxCell id="ZVQHAaGxuzvZ9deuEwwE-33" style="edgeStyle=orthogonalEdgeStyle;rounded=0;orthogonalLoop=1;jettySize=auto;html=1;" edge="1" parent="1" source="ZVQHAaGxuzvZ9deuEwwE-32">
          <mxGeometry relative="1" as="geometry">
            <mxPoint x="1470" y="1280" as="targetPoint" />
            <Array as="points">
              <mxPoint x="1470" y="1190" />
              <mxPoint x="1470" y="1190" />
            </Array>
          </mxGeometry>
        </mxCell>
        <mxCell id="ZVQHAaGxuzvZ9deuEwwE-72" value="Y" style="edgeLabel;html=1;align=center;verticalAlign=middle;resizable=0;points=[];" connectable="0" vertex="1" parent="ZVQHAaGxuzvZ9deuEwwE-33">
          <mxGeometry x="-0.4978" y="1" relative="1" as="geometry">
            <mxPoint as="offset" />
          </mxGeometry>
        </mxCell>
        <mxCell id="ZVQHAaGxuzvZ9deuEwwE-34" style="edgeStyle=orthogonalEdgeStyle;rounded=0;orthogonalLoop=1;jettySize=auto;html=1;" edge="1" parent="1" source="ZVQHAaGxuzvZ9deuEwwE-32">
          <mxGeometry relative="1" as="geometry">
            <mxPoint x="1850" y="1280" as="targetPoint" />
            <Array as="points">
              <mxPoint x="1850" y="1190" />
            </Array>
          </mxGeometry>
        </mxCell>
        <mxCell id="ZVQHAaGxuzvZ9deuEwwE-73" value="N" style="edgeLabel;html=1;align=center;verticalAlign=middle;resizable=0;points=[];" connectable="0" vertex="1" parent="ZVQHAaGxuzvZ9deuEwwE-34">
          <mxGeometry x="-0.3657" y="-1" relative="1" as="geometry">
            <mxPoint as="offset" />
          </mxGeometry>
        </mxCell>
        <mxCell id="ZVQHAaGxuzvZ9deuEwwE-32" value="month number==7" style="rhombus;whiteSpace=wrap;html=1;" vertex="1" parent="1">
          <mxGeometry x="1580" y="1150" width="140" height="80" as="geometry" />
        </mxCell>
        <mxCell id="ZVQHAaGxuzvZ9deuEwwE-89" style="edgeStyle=orthogonalEdgeStyle;rounded=0;orthogonalLoop=1;jettySize=auto;html=1;" edge="1" parent="1" source="ZVQHAaGxuzvZ9deuEwwE-36">
          <mxGeometry relative="1" as="geometry">
            <mxPoint x="1100" y="1870" as="targetPoint" />
            <Array as="points">
              <mxPoint x="1450" y="1870" />
            </Array>
          </mxGeometry>
        </mxCell>
        <mxCell id="ZVQHAaGxuzvZ9deuEwwE-36" value="print(july)&lt;div&gt;print(july has 31 days)&lt;/div&gt;" style="shape=parallelogram;perimeter=parallelogramPerimeter;whiteSpace=wrap;html=1;fixedSize=1;" vertex="1" parent="1">
          <mxGeometry x="1365" y="1280" width="190" height="60" as="geometry" />
        </mxCell>
        <mxCell id="ZVQHAaGxuzvZ9deuEwwE-38" style="edgeStyle=orthogonalEdgeStyle;rounded=0;orthogonalLoop=1;jettySize=auto;html=1;" edge="1" parent="1" source="ZVQHAaGxuzvZ9deuEwwE-37">
          <mxGeometry relative="1" as="geometry">
            <mxPoint x="1670" y="1400" as="targetPoint" />
            <Array as="points">
              <mxPoint x="1670" y="1320" />
              <mxPoint x="1670" y="1320" />
            </Array>
          </mxGeometry>
        </mxCell>
        <mxCell id="ZVQHAaGxuzvZ9deuEwwE-74" value="Y" style="edgeLabel;html=1;align=center;verticalAlign=middle;resizable=0;points=[];" connectable="0" vertex="1" parent="ZVQHAaGxuzvZ9deuEwwE-38">
          <mxGeometry x="-0.4914" y="-1" relative="1" as="geometry">
            <mxPoint as="offset" />
          </mxGeometry>
        </mxCell>
        <mxCell id="ZVQHAaGxuzvZ9deuEwwE-39" style="edgeStyle=orthogonalEdgeStyle;rounded=0;orthogonalLoop=1;jettySize=auto;html=1;" edge="1" parent="1" source="ZVQHAaGxuzvZ9deuEwwE-37">
          <mxGeometry relative="1" as="geometry">
            <mxPoint x="2040" y="1400" as="targetPoint" />
            <Array as="points">
              <mxPoint x="2040" y="1320" />
              <mxPoint x="2040" y="1320" />
            </Array>
          </mxGeometry>
        </mxCell>
        <mxCell id="ZVQHAaGxuzvZ9deuEwwE-75" value="N" style="edgeLabel;html=1;align=center;verticalAlign=middle;resizable=0;points=[];" connectable="0" vertex="1" parent="ZVQHAaGxuzvZ9deuEwwE-39">
          <mxGeometry x="-0.3591" y="-2" relative="1" as="geometry">
            <mxPoint as="offset" />
          </mxGeometry>
        </mxCell>
        <mxCell id="ZVQHAaGxuzvZ9deuEwwE-37" value="month number==8" style="rhombus;whiteSpace=wrap;html=1;" vertex="1" parent="1">
          <mxGeometry x="1770" y="1280" width="160" height="80" as="geometry" />
        </mxCell>
        <mxCell id="ZVQHAaGxuzvZ9deuEwwE-88" style="edgeStyle=orthogonalEdgeStyle;rounded=0;orthogonalLoop=1;jettySize=auto;html=1;" edge="1" parent="1">
          <mxGeometry relative="1" as="geometry">
            <mxPoint x="1100" y="1900" as="targetPoint" />
            <mxPoint x="1665" y="1450" as="sourcePoint" />
            <Array as="points">
              <mxPoint x="1665" y="1830" />
              <mxPoint x="1666" y="1900" />
            </Array>
          </mxGeometry>
        </mxCell>
        <mxCell id="ZVQHAaGxuzvZ9deuEwwE-40" value="print(august)&lt;div&gt;print(august has 31 days)&lt;/div&gt;" style="shape=parallelogram;perimeter=parallelogramPerimeter;whiteSpace=wrap;html=1;fixedSize=1;" vertex="1" parent="1">
          <mxGeometry x="1570" y="1400" width="190" height="60" as="geometry" />
        </mxCell>
        <mxCell id="ZVQHAaGxuzvZ9deuEwwE-42" style="edgeStyle=orthogonalEdgeStyle;rounded=0;orthogonalLoop=1;jettySize=auto;html=1;" edge="1" parent="1" source="ZVQHAaGxuzvZ9deuEwwE-41">
          <mxGeometry relative="1" as="geometry">
            <mxPoint x="1840" y="1540" as="targetPoint" />
            <Array as="points">
              <mxPoint x="1840" y="1440" />
              <mxPoint x="1840" y="1440" />
            </Array>
          </mxGeometry>
        </mxCell>
        <mxCell id="ZVQHAaGxuzvZ9deuEwwE-76" value="Y" style="edgeLabel;html=1;align=center;verticalAlign=middle;resizable=0;points=[];" connectable="0" vertex="1" parent="ZVQHAaGxuzvZ9deuEwwE-42">
          <mxGeometry x="-0.4424" y="1" relative="1" as="geometry">
            <mxPoint as="offset" />
          </mxGeometry>
        </mxCell>
        <mxCell id="ZVQHAaGxuzvZ9deuEwwE-44" style="edgeStyle=orthogonalEdgeStyle;rounded=0;orthogonalLoop=1;jettySize=auto;html=1;" edge="1" parent="1" source="ZVQHAaGxuzvZ9deuEwwE-41">
          <mxGeometry relative="1" as="geometry">
            <mxPoint x="2240" y="1540" as="targetPoint" />
            <Array as="points">
              <mxPoint x="2240" y="1440" />
            </Array>
          </mxGeometry>
        </mxCell>
        <mxCell id="ZVQHAaGxuzvZ9deuEwwE-77" value="N" style="edgeLabel;html=1;align=center;verticalAlign=middle;resizable=0;points=[];" connectable="0" vertex="1" parent="ZVQHAaGxuzvZ9deuEwwE-44">
          <mxGeometry x="-0.5273" y="1" relative="1" as="geometry">
            <mxPoint as="offset" />
          </mxGeometry>
        </mxCell>
        <mxCell id="ZVQHAaGxuzvZ9deuEwwE-41" value="month number==9" style="rhombus;whiteSpace=wrap;html=1;" vertex="1" parent="1">
          <mxGeometry x="1960" y="1400" width="160" height="80" as="geometry" />
        </mxCell>
        <mxCell id="ZVQHAaGxuzvZ9deuEwwE-87" style="edgeStyle=orthogonalEdgeStyle;rounded=0;orthogonalLoop=1;jettySize=auto;html=1;" edge="1" parent="1" source="ZVQHAaGxuzvZ9deuEwwE-45">
          <mxGeometry relative="1" as="geometry">
            <mxPoint x="1100" y="1915" as="targetPoint" />
            <Array as="points">
              <mxPoint x="1840" y="1915" />
            </Array>
          </mxGeometry>
        </mxCell>
        <mxCell id="ZVQHAaGxuzvZ9deuEwwE-45" value="print(september)&lt;div&gt;print(september has 30 days)&lt;/div&gt;" style="shape=parallelogram;perimeter=parallelogramPerimeter;whiteSpace=wrap;html=1;fixedSize=1;" vertex="1" parent="1">
          <mxGeometry x="1740" y="1540" width="200" height="60" as="geometry" />
        </mxCell>
        <mxCell id="ZVQHAaGxuzvZ9deuEwwE-47" style="edgeStyle=orthogonalEdgeStyle;rounded=0;orthogonalLoop=1;jettySize=auto;html=1;" edge="1" parent="1" source="ZVQHAaGxuzvZ9deuEwwE-46">
          <mxGeometry relative="1" as="geometry">
            <mxPoint x="2050" y="1670" as="targetPoint" />
            <Array as="points">
              <mxPoint x="2050" y="1580" />
            </Array>
          </mxGeometry>
        </mxCell>
        <mxCell id="ZVQHAaGxuzvZ9deuEwwE-78" value="Y" style="edgeLabel;html=1;align=center;verticalAlign=middle;resizable=0;points=[];" connectable="0" vertex="1" parent="ZVQHAaGxuzvZ9deuEwwE-47">
          <mxGeometry x="-0.6756" y="2" relative="1" as="geometry">
            <mxPoint as="offset" />
          </mxGeometry>
        </mxCell>
        <mxCell id="ZVQHAaGxuzvZ9deuEwwE-48" style="edgeStyle=orthogonalEdgeStyle;rounded=0;orthogonalLoop=1;jettySize=auto;html=1;" edge="1" parent="1" source="ZVQHAaGxuzvZ9deuEwwE-46">
          <mxGeometry relative="1" as="geometry">
            <mxPoint x="2440" y="1680" as="targetPoint" />
            <Array as="points">
              <mxPoint x="2440" y="1580" />
            </Array>
          </mxGeometry>
        </mxCell>
        <mxCell id="ZVQHAaGxuzvZ9deuEwwE-79" value="N" style="edgeLabel;html=1;align=center;verticalAlign=middle;resizable=0;points=[];" connectable="0" vertex="1" parent="ZVQHAaGxuzvZ9deuEwwE-48">
          <mxGeometry x="-0.4162" y="2" relative="1" as="geometry">
            <mxPoint as="offset" />
          </mxGeometry>
        </mxCell>
        <mxCell id="ZVQHAaGxuzvZ9deuEwwE-46" value="month number==10" style="rhombus;whiteSpace=wrap;html=1;" vertex="1" parent="1">
          <mxGeometry x="2160" y="1540" width="160" height="80" as="geometry" />
        </mxCell>
        <mxCell id="ZVQHAaGxuzvZ9deuEwwE-85" style="edgeStyle=orthogonalEdgeStyle;rounded=0;orthogonalLoop=1;jettySize=auto;html=1;" edge="1" parent="1" source="ZVQHAaGxuzvZ9deuEwwE-49">
          <mxGeometry relative="1" as="geometry">
            <mxPoint x="1100" y="1940" as="targetPoint" />
            <Array as="points">
              <mxPoint x="2050" y="1940" />
            </Array>
          </mxGeometry>
        </mxCell>
        <mxCell id="ZVQHAaGxuzvZ9deuEwwE-49" value="print(octuber)&lt;div&gt;print(octuber has 31 days)&lt;/div&gt;" style="shape=parallelogram;perimeter=parallelogramPerimeter;whiteSpace=wrap;html=1;fixedSize=1;" vertex="1" parent="1">
          <mxGeometry x="1950" y="1670" width="200" height="60" as="geometry" />
        </mxCell>
        <mxCell id="ZVQHAaGxuzvZ9deuEwwE-51" style="edgeStyle=orthogonalEdgeStyle;rounded=0;orthogonalLoop=1;jettySize=auto;html=1;" edge="1" parent="1" source="ZVQHAaGxuzvZ9deuEwwE-50">
          <mxGeometry relative="1" as="geometry">
            <mxPoint x="2270" y="1810" as="targetPoint" />
            <Array as="points">
              <mxPoint x="2270" y="1720" />
              <mxPoint x="2270" y="1720" />
            </Array>
          </mxGeometry>
        </mxCell>
        <mxCell id="ZVQHAaGxuzvZ9deuEwwE-80" value="Y" style="edgeLabel;html=1;align=center;verticalAlign=middle;resizable=0;points=[];" connectable="0" vertex="1" parent="ZVQHAaGxuzvZ9deuEwwE-51">
          <mxGeometry x="-0.6" y="-2" relative="1" as="geometry">
            <mxPoint as="offset" />
          </mxGeometry>
        </mxCell>
        <mxCell id="ZVQHAaGxuzvZ9deuEwwE-52" style="edgeStyle=orthogonalEdgeStyle;rounded=0;orthogonalLoop=1;jettySize=auto;html=1;" edge="1" parent="1" source="ZVQHAaGxuzvZ9deuEwwE-50">
          <mxGeometry relative="1" as="geometry">
            <mxPoint x="2640" y="1810" as="targetPoint" />
            <Array as="points">
              <mxPoint x="2640" y="1720" />
            </Array>
          </mxGeometry>
        </mxCell>
        <mxCell id="ZVQHAaGxuzvZ9deuEwwE-81" value="N" style="edgeLabel;html=1;align=center;verticalAlign=middle;resizable=0;points=[];" connectable="0" vertex="1" parent="ZVQHAaGxuzvZ9deuEwwE-52">
          <mxGeometry x="-0.3253" y="-1" relative="1" as="geometry">
            <mxPoint as="offset" />
          </mxGeometry>
        </mxCell>
        <mxCell id="ZVQHAaGxuzvZ9deuEwwE-50" value="month number==11" style="rhombus;whiteSpace=wrap;html=1;" vertex="1" parent="1">
          <mxGeometry x="2370" y="1680" width="140" height="80" as="geometry" />
        </mxCell>
        <mxCell id="ZVQHAaGxuzvZ9deuEwwE-84" style="edgeStyle=orthogonalEdgeStyle;rounded=0;orthogonalLoop=1;jettySize=auto;html=1;" edge="1" parent="1" source="ZVQHAaGxuzvZ9deuEwwE-53">
          <mxGeometry relative="1" as="geometry">
            <mxPoint x="1090" y="1970" as="targetPoint" />
            <Array as="points">
              <mxPoint x="2270" y="1970" />
            </Array>
          </mxGeometry>
        </mxCell>
        <mxCell id="ZVQHAaGxuzvZ9deuEwwE-53" value="print(november)&lt;div&gt;print(november has 30 days)&lt;/div&gt;" style="shape=parallelogram;perimeter=parallelogramPerimeter;whiteSpace=wrap;html=1;fixedSize=1;" vertex="1" parent="1">
          <mxGeometry x="2170" y="1810" width="200" height="60" as="geometry" />
        </mxCell>
        <mxCell id="ZVQHAaGxuzvZ9deuEwwE-83" style="edgeStyle=orthogonalEdgeStyle;rounded=0;orthogonalLoop=1;jettySize=auto;html=1;entryX=1;entryY=1;entryDx=0;entryDy=0;" edge="1" parent="1" source="ZVQHAaGxuzvZ9deuEwwE-58" target="ZVQHAaGxuzvZ9deuEwwE-82">
          <mxGeometry relative="1" as="geometry">
            <mxPoint x="1190" y="2000" as="targetPoint" />
            <Array as="points">
              <mxPoint x="2640" y="1996" />
            </Array>
          </mxGeometry>
        </mxCell>
        <mxCell id="ZVQHAaGxuzvZ9deuEwwE-58" value="print(december)&lt;div&gt;print(december has 31 days)&lt;/div&gt;" style="shape=parallelogram;perimeter=parallelogramPerimeter;whiteSpace=wrap;html=1;fixedSize=1;" vertex="1" parent="1">
          <mxGeometry x="2540" y="1810" width="200" height="60" as="geometry" />
        </mxCell>
        <mxCell id="ZVQHAaGxuzvZ9deuEwwE-97" style="edgeStyle=orthogonalEdgeStyle;rounded=0;orthogonalLoop=1;jettySize=auto;html=1;" edge="1" parent="1" source="ZVQHAaGxuzvZ9deuEwwE-82" target="ZVQHAaGxuzvZ9deuEwwE-96">
          <mxGeometry relative="1" as="geometry" />
        </mxCell>
        <mxCell id="ZVQHAaGxuzvZ9deuEwwE-82" value="" style="ellipse;whiteSpace=wrap;html=1;" vertex="1" parent="1">
          <mxGeometry x="840" y="1800" width="250" height="230" as="geometry" />
        </mxCell>
        <mxCell id="ZVQHAaGxuzvZ9deuEwwE-96" value="&lt;font size=&quot;3&quot;&gt;STOP&lt;/font&gt;" style="ellipse;whiteSpace=wrap;html=1;" vertex="1" parent="1">
          <mxGeometry x="855" y="2200" width="220" height="89" as="geometry" />
        </mxCell>
      </root>
    </mxGraphModel>
  </diagram>
</mxfile>
